%TF.GenerationSoftware,KiCad,Pcbnew,(5.1.6)-1*%
%TF.CreationDate,2020-06-29T23:41:49+02:00*%
%TF.ProjectId,EnergyMonitor,456e6572-6779-44d6-9f6e-69746f722e6b,1.0*%
%TF.SameCoordinates,Original*%
%TF.FileFunction,OtherDrawing,Comment*%
%FSLAX46Y46*%
G04 Gerber Fmt 4.6, Leading zero omitted, Abs format (unit mm)*
G04 Created by KiCad (PCBNEW (5.1.6)-1) date 2020-06-29 23:41:49*
%MOMM*%
%LPD*%
G01*
G04 APERTURE LIST*
%ADD10C,0.150000*%
%ADD11C,0.120000*%
G04 APERTURE END LIST*
D10*
X96752380Y-60912380D02*
X96180952Y-60912380D01*
X96466666Y-60912380D02*
X96466666Y-59912380D01*
X96371428Y-60055238D01*
X96276190Y-60150476D01*
X96180952Y-60198095D01*
X97371428Y-59912380D02*
X97466666Y-59912380D01*
X97561904Y-59960000D01*
X97609523Y-60007619D01*
X97657142Y-60102857D01*
X97704761Y-60293333D01*
X97704761Y-60531428D01*
X97657142Y-60721904D01*
X97609523Y-60817142D01*
X97561904Y-60864761D01*
X97466666Y-60912380D01*
X97371428Y-60912380D01*
X97276190Y-60864761D01*
X97228571Y-60817142D01*
X97180952Y-60721904D01*
X97133333Y-60531428D01*
X97133333Y-60293333D01*
X97180952Y-60102857D01*
X97228571Y-60007619D01*
X97276190Y-59960000D01*
X97371428Y-59912380D01*
X98323809Y-59912380D02*
X98419047Y-59912380D01*
X98514285Y-59960000D01*
X98561904Y-60007619D01*
X98609523Y-60102857D01*
X98657142Y-60293333D01*
X98657142Y-60531428D01*
X98609523Y-60721904D01*
X98561904Y-60817142D01*
X98514285Y-60864761D01*
X98419047Y-60912380D01*
X98323809Y-60912380D01*
X98228571Y-60864761D01*
X98180952Y-60817142D01*
X98133333Y-60721904D01*
X98085714Y-60531428D01*
X98085714Y-60293333D01*
X98133333Y-60102857D01*
X98180952Y-60007619D01*
X98228571Y-59960000D01*
X98323809Y-59912380D01*
X99133333Y-60864761D02*
X99133333Y-60912380D01*
X99085714Y-61007619D01*
X99038095Y-61055238D01*
X99752380Y-59912380D02*
X99847619Y-59912380D01*
X99942857Y-59960000D01*
X99990476Y-60007619D01*
X100038095Y-60102857D01*
X100085714Y-60293333D01*
X100085714Y-60531428D01*
X100038095Y-60721904D01*
X99990476Y-60817142D01*
X99942857Y-60864761D01*
X99847619Y-60912380D01*
X99752380Y-60912380D01*
X99657142Y-60864761D01*
X99609523Y-60817142D01*
X99561904Y-60721904D01*
X99514285Y-60531428D01*
X99514285Y-60293333D01*
X99561904Y-60102857D01*
X99609523Y-60007619D01*
X99657142Y-59960000D01*
X99752380Y-59912380D01*
X100704761Y-59912380D02*
X100800000Y-59912380D01*
X100895238Y-59960000D01*
X100942857Y-60007619D01*
X100990476Y-60102857D01*
X101038095Y-60293333D01*
X101038095Y-60531428D01*
X100990476Y-60721904D01*
X100942857Y-60817142D01*
X100895238Y-60864761D01*
X100800000Y-60912380D01*
X100704761Y-60912380D01*
X100609523Y-60864761D01*
X100561904Y-60817142D01*
X100514285Y-60721904D01*
X100466666Y-60531428D01*
X100466666Y-60293333D01*
X100514285Y-60102857D01*
X100561904Y-60007619D01*
X100609523Y-59960000D01*
X100704761Y-59912380D01*
X101657142Y-59912380D02*
X101752380Y-59912380D01*
X101847619Y-59960000D01*
X101895238Y-60007619D01*
X101942857Y-60102857D01*
X101990476Y-60293333D01*
X101990476Y-60531428D01*
X101942857Y-60721904D01*
X101895238Y-60817142D01*
X101847619Y-60864761D01*
X101752380Y-60912380D01*
X101657142Y-60912380D01*
X101561904Y-60864761D01*
X101514285Y-60817142D01*
X101466666Y-60721904D01*
X101419047Y-60531428D01*
X101419047Y-60293333D01*
X101466666Y-60102857D01*
X101514285Y-60007619D01*
X101561904Y-59960000D01*
X101657142Y-59912380D01*
X103180952Y-60912380D02*
X103180952Y-60245714D01*
X103180952Y-60340952D02*
X103228571Y-60293333D01*
X103323809Y-60245714D01*
X103466666Y-60245714D01*
X103561904Y-60293333D01*
X103609523Y-60388571D01*
X103609523Y-60912380D01*
X103609523Y-60388571D02*
X103657142Y-60293333D01*
X103752380Y-60245714D01*
X103895238Y-60245714D01*
X103990476Y-60293333D01*
X104038095Y-60388571D01*
X104038095Y-60912380D01*
X104514285Y-60912380D02*
X104514285Y-60245714D01*
X104514285Y-60340952D02*
X104561904Y-60293333D01*
X104657142Y-60245714D01*
X104800000Y-60245714D01*
X104895238Y-60293333D01*
X104942857Y-60388571D01*
X104942857Y-60912380D01*
X104942857Y-60388571D02*
X104990476Y-60293333D01*
X105085714Y-60245714D01*
X105228571Y-60245714D01*
X105323809Y-60293333D01*
X105371428Y-60388571D01*
X105371428Y-60912380D01*
X50800000Y-61760000D02*
X150800000Y-61760000D01*
X50800000Y-69200000D02*
X50800000Y-61173579D01*
X150800000Y-69200000D02*
X150800000Y-61173579D01*
X150800000Y-61760000D02*
X149673496Y-62346421D01*
X150800000Y-61760000D02*
X149673496Y-61173579D01*
X50800000Y-61760000D02*
X51926504Y-62346421D01*
X50800000Y-61760000D02*
X51926504Y-61173579D01*
X158412380Y-123247619D02*
X158412380Y-123819047D01*
X158412380Y-123533333D02*
X157412380Y-123533333D01*
X157555238Y-123628571D01*
X157650476Y-123723809D01*
X157698095Y-123819047D01*
X157412380Y-122628571D02*
X157412380Y-122533333D01*
X157460000Y-122438095D01*
X157507619Y-122390476D01*
X157602857Y-122342857D01*
X157793333Y-122295238D01*
X158031428Y-122295238D01*
X158221904Y-122342857D01*
X158317142Y-122390476D01*
X158364761Y-122438095D01*
X158412380Y-122533333D01*
X158412380Y-122628571D01*
X158364761Y-122723809D01*
X158317142Y-122771428D01*
X158221904Y-122819047D01*
X158031428Y-122866666D01*
X157793333Y-122866666D01*
X157602857Y-122819047D01*
X157507619Y-122771428D01*
X157460000Y-122723809D01*
X157412380Y-122628571D01*
X157412380Y-121676190D02*
X157412380Y-121580952D01*
X157460000Y-121485714D01*
X157507619Y-121438095D01*
X157602857Y-121390476D01*
X157793333Y-121342857D01*
X158031428Y-121342857D01*
X158221904Y-121390476D01*
X158317142Y-121438095D01*
X158364761Y-121485714D01*
X158412380Y-121580952D01*
X158412380Y-121676190D01*
X158364761Y-121771428D01*
X158317142Y-121819047D01*
X158221904Y-121866666D01*
X158031428Y-121914285D01*
X157793333Y-121914285D01*
X157602857Y-121866666D01*
X157507619Y-121819047D01*
X157460000Y-121771428D01*
X157412380Y-121676190D01*
X158364761Y-120866666D02*
X158412380Y-120866666D01*
X158507619Y-120914285D01*
X158555238Y-120961904D01*
X157412380Y-120247619D02*
X157412380Y-120152380D01*
X157460000Y-120057142D01*
X157507619Y-120009523D01*
X157602857Y-119961904D01*
X157793333Y-119914285D01*
X158031428Y-119914285D01*
X158221904Y-119961904D01*
X158317142Y-120009523D01*
X158364761Y-120057142D01*
X158412380Y-120152380D01*
X158412380Y-120247619D01*
X158364761Y-120342857D01*
X158317142Y-120390476D01*
X158221904Y-120438095D01*
X158031428Y-120485714D01*
X157793333Y-120485714D01*
X157602857Y-120438095D01*
X157507619Y-120390476D01*
X157460000Y-120342857D01*
X157412380Y-120247619D01*
X157412380Y-119295238D02*
X157412380Y-119200000D01*
X157460000Y-119104761D01*
X157507619Y-119057142D01*
X157602857Y-119009523D01*
X157793333Y-118961904D01*
X158031428Y-118961904D01*
X158221904Y-119009523D01*
X158317142Y-119057142D01*
X158364761Y-119104761D01*
X158412380Y-119200000D01*
X158412380Y-119295238D01*
X158364761Y-119390476D01*
X158317142Y-119438095D01*
X158221904Y-119485714D01*
X158031428Y-119533333D01*
X157793333Y-119533333D01*
X157602857Y-119485714D01*
X157507619Y-119438095D01*
X157460000Y-119390476D01*
X157412380Y-119295238D01*
X157412380Y-118342857D02*
X157412380Y-118247619D01*
X157460000Y-118152380D01*
X157507619Y-118104761D01*
X157602857Y-118057142D01*
X157793333Y-118009523D01*
X158031428Y-118009523D01*
X158221904Y-118057142D01*
X158317142Y-118104761D01*
X158364761Y-118152380D01*
X158412380Y-118247619D01*
X158412380Y-118342857D01*
X158364761Y-118438095D01*
X158317142Y-118485714D01*
X158221904Y-118533333D01*
X158031428Y-118580952D01*
X157793333Y-118580952D01*
X157602857Y-118533333D01*
X157507619Y-118485714D01*
X157460000Y-118438095D01*
X157412380Y-118342857D01*
X158412380Y-116819047D02*
X157745714Y-116819047D01*
X157840952Y-116819047D02*
X157793333Y-116771428D01*
X157745714Y-116676190D01*
X157745714Y-116533333D01*
X157793333Y-116438095D01*
X157888571Y-116390476D01*
X158412380Y-116390476D01*
X157888571Y-116390476D02*
X157793333Y-116342857D01*
X157745714Y-116247619D01*
X157745714Y-116104761D01*
X157793333Y-116009523D01*
X157888571Y-115961904D01*
X158412380Y-115961904D01*
X158412380Y-115485714D02*
X157745714Y-115485714D01*
X157840952Y-115485714D02*
X157793333Y-115438095D01*
X157745714Y-115342857D01*
X157745714Y-115200000D01*
X157793333Y-115104761D01*
X157888571Y-115057142D01*
X158412380Y-115057142D01*
X157888571Y-115057142D02*
X157793333Y-115009523D01*
X157745714Y-114914285D01*
X157745714Y-114771428D01*
X157793333Y-114676190D01*
X157888571Y-114628571D01*
X158412380Y-114628571D01*
X156660000Y-169200000D02*
X156660000Y-69200000D01*
X150800000Y-169200000D02*
X157246421Y-169200000D01*
X150800000Y-69200000D02*
X157246421Y-69200000D01*
X156660000Y-69200000D02*
X157246421Y-70326504D01*
X156660000Y-69200000D02*
X156073579Y-70326504D01*
X156660000Y-169200000D02*
X157246421Y-168073496D01*
X156660000Y-169200000D02*
X156073579Y-168073496D01*
D11*
%TO.C,L1*%
X76490000Y-142060000D02*
G75*
G03*
X76490000Y-142060000I-4900000J0D01*
G01*
%TD*%
M02*
