%TF.GenerationSoftware,KiCad,Pcbnew,(5.1.6)-1*%
%TF.CreationDate,2020-06-29T23:41:49+02:00*%
%TF.ProjectId,EnergyMonitor,456e6572-6779-44d6-9f6e-69746f722e6b,1.0*%
%TF.SameCoordinates,Original*%
%TF.FileFunction,Legend,Bot*%
%TF.FilePolarity,Positive*%
%FSLAX46Y46*%
G04 Gerber Fmt 4.6, Leading zero omitted, Abs format (unit mm)*
G04 Created by KiCad (PCBNEW (5.1.6)-1) date 2020-06-29 23:41:49*
%MOMM*%
%LPD*%
G01*
G04 APERTURE LIST*
%ADD10C,0.375000*%
%ADD11C,0.150000*%
%ADD12C,0.200000*%
%ADD13C,0.120000*%
%ADD14C,0.500000*%
%ADD15C,0.381000*%
G04 APERTURE END LIST*
D10*
X136034285Y-84953571D02*
X136034285Y-83453571D01*
X135177142Y-84953571D01*
X135177142Y-83453571D01*
X134248571Y-84953571D02*
X134391428Y-84882142D01*
X134462857Y-84810714D01*
X134534285Y-84667857D01*
X134534285Y-84239285D01*
X134462857Y-84096428D01*
X134391428Y-84025000D01*
X134248571Y-83953571D01*
X134034285Y-83953571D01*
X133891428Y-84025000D01*
X133820000Y-84096428D01*
X133748571Y-84239285D01*
X133748571Y-84667857D01*
X133820000Y-84810714D01*
X133891428Y-84882142D01*
X134034285Y-84953571D01*
X134248571Y-84953571D01*
X132462857Y-83953571D02*
X132462857Y-84953571D01*
X133105714Y-83953571D02*
X133105714Y-84739285D01*
X133034285Y-84882142D01*
X132891428Y-84953571D01*
X132677142Y-84953571D01*
X132534285Y-84882142D01*
X132462857Y-84810714D01*
X131962857Y-83953571D02*
X131391428Y-83953571D01*
X131748571Y-83453571D02*
X131748571Y-84739285D01*
X131677142Y-84882142D01*
X131534285Y-84953571D01*
X131391428Y-84953571D01*
X114964285Y-84953571D02*
X114964285Y-83453571D01*
X114107142Y-84953571D01*
X114107142Y-83453571D01*
X113392857Y-84953571D02*
X113392857Y-83953571D01*
X113392857Y-83453571D02*
X113464285Y-83525000D01*
X113392857Y-83596428D01*
X113321428Y-83525000D01*
X113392857Y-83453571D01*
X113392857Y-83596428D01*
X112678571Y-83953571D02*
X112678571Y-84953571D01*
X112678571Y-84096428D02*
X112607142Y-84025000D01*
X112464285Y-83953571D01*
X112250000Y-83953571D01*
X112107142Y-84025000D01*
X112035714Y-84167857D01*
X112035714Y-84953571D01*
D11*
X146972380Y-152490000D02*
X145972380Y-152490000D01*
X146972380Y-152966190D02*
X145972380Y-152966190D01*
X146972380Y-153537619D01*
X145972380Y-153537619D01*
X146972380Y-154537619D02*
X146972380Y-153966190D01*
X146972380Y-154251904D02*
X145972380Y-154251904D01*
X146115238Y-154156666D01*
X146210476Y-154061428D01*
X146258095Y-153966190D01*
X145972380Y-146933809D02*
X145972380Y-147124285D01*
X146020000Y-147219523D01*
X146115238Y-147314761D01*
X146305714Y-147362380D01*
X146639047Y-147362380D01*
X146829523Y-147314761D01*
X146924761Y-147219523D01*
X146972380Y-147124285D01*
X146972380Y-146933809D01*
X146924761Y-146838571D01*
X146829523Y-146743333D01*
X146639047Y-146695714D01*
X146305714Y-146695714D01*
X146115238Y-146743333D01*
X146020000Y-146838571D01*
X145972380Y-146933809D01*
X145972380Y-147790952D02*
X146781904Y-147790952D01*
X146877142Y-147838571D01*
X146924761Y-147886190D01*
X146972380Y-147981428D01*
X146972380Y-148171904D01*
X146924761Y-148267142D01*
X146877142Y-148314761D01*
X146781904Y-148362380D01*
X145972380Y-148362380D01*
X145972380Y-148695714D02*
X145972380Y-149267142D01*
X146972380Y-148981428D02*
X145972380Y-148981428D01*
X146067619Y-149552857D02*
X146020000Y-149600476D01*
X145972380Y-149695714D01*
X145972380Y-149933809D01*
X146020000Y-150029047D01*
X146067619Y-150076666D01*
X146162857Y-150124285D01*
X146258095Y-150124285D01*
X146400952Y-150076666D01*
X146972380Y-149505238D01*
X146972380Y-150124285D01*
X145972380Y-141853809D02*
X145972380Y-142044285D01*
X146020000Y-142139523D01*
X146115238Y-142234761D01*
X146305714Y-142282380D01*
X146639047Y-142282380D01*
X146829523Y-142234761D01*
X146924761Y-142139523D01*
X146972380Y-142044285D01*
X146972380Y-141853809D01*
X146924761Y-141758571D01*
X146829523Y-141663333D01*
X146639047Y-141615714D01*
X146305714Y-141615714D01*
X146115238Y-141663333D01*
X146020000Y-141758571D01*
X145972380Y-141853809D01*
X145972380Y-142710952D02*
X146781904Y-142710952D01*
X146877142Y-142758571D01*
X146924761Y-142806190D01*
X146972380Y-142901428D01*
X146972380Y-143091904D01*
X146924761Y-143187142D01*
X146877142Y-143234761D01*
X146781904Y-143282380D01*
X145972380Y-143282380D01*
X145972380Y-143615714D02*
X145972380Y-144187142D01*
X146972380Y-143901428D02*
X145972380Y-143901428D01*
X146972380Y-145044285D02*
X146972380Y-144472857D01*
X146972380Y-144758571D02*
X145972380Y-144758571D01*
X146115238Y-144663333D01*
X146210476Y-144568095D01*
X146258095Y-144472857D01*
X141820952Y-154831428D02*
X141059047Y-154831428D01*
X141820952Y-144671428D02*
X141059047Y-144671428D01*
X141820952Y-149751428D02*
X141059047Y-149751428D01*
X141820952Y-152291428D02*
X141059047Y-152291428D01*
X141440000Y-152672380D02*
X141440000Y-151910476D01*
X141820952Y-147211428D02*
X141059047Y-147211428D01*
X141440000Y-147592380D02*
X141440000Y-146830476D01*
X141820952Y-142131428D02*
X141059047Y-142131428D01*
X141440000Y-142512380D02*
X141440000Y-141750476D01*
X143314166Y-119652380D02*
X143314166Y-118652380D01*
X142837976Y-118985714D02*
X142837976Y-119652380D01*
X142837976Y-119080952D02*
X142790357Y-119033333D01*
X142695119Y-118985714D01*
X142552261Y-118985714D01*
X142457023Y-119033333D01*
X142409404Y-119128571D01*
X142409404Y-119652380D01*
X141980833Y-119604761D02*
X141885595Y-119652380D01*
X141695119Y-119652380D01*
X141599880Y-119604761D01*
X141552261Y-119509523D01*
X141552261Y-119461904D01*
X141599880Y-119366666D01*
X141695119Y-119319047D01*
X141837976Y-119319047D01*
X141933214Y-119271428D01*
X141980833Y-119176190D01*
X141980833Y-119128571D01*
X141933214Y-119033333D01*
X141837976Y-118985714D01*
X141695119Y-118985714D01*
X141599880Y-119033333D01*
X140980833Y-119652380D02*
X141076071Y-119604761D01*
X141123690Y-119557142D01*
X141171309Y-119461904D01*
X141171309Y-119176190D01*
X141123690Y-119080952D01*
X141076071Y-119033333D01*
X140980833Y-118985714D01*
X140837976Y-118985714D01*
X140742738Y-119033333D01*
X140695119Y-119080952D01*
X140647500Y-119176190D01*
X140647500Y-119461904D01*
X140695119Y-119557142D01*
X140742738Y-119604761D01*
X140837976Y-119652380D01*
X140980833Y-119652380D01*
X140076071Y-119652380D02*
X140171309Y-119604761D01*
X140218928Y-119509523D01*
X140218928Y-118652380D01*
X139266547Y-119652380D02*
X139266547Y-119128571D01*
X139314166Y-119033333D01*
X139409404Y-118985714D01*
X139599880Y-118985714D01*
X139695119Y-119033333D01*
X139266547Y-119604761D02*
X139361785Y-119652380D01*
X139599880Y-119652380D01*
X139695119Y-119604761D01*
X139742738Y-119509523D01*
X139742738Y-119414285D01*
X139695119Y-119319047D01*
X139599880Y-119271428D01*
X139361785Y-119271428D01*
X139266547Y-119223809D01*
X138933214Y-118985714D02*
X138552261Y-118985714D01*
X138790357Y-118652380D02*
X138790357Y-119509523D01*
X138742738Y-119604761D01*
X138647500Y-119652380D01*
X138552261Y-119652380D01*
X137837976Y-119604761D02*
X137933214Y-119652380D01*
X138123690Y-119652380D01*
X138218928Y-119604761D01*
X138266547Y-119509523D01*
X138266547Y-119128571D01*
X138218928Y-119033333D01*
X138123690Y-118985714D01*
X137933214Y-118985714D01*
X137837976Y-119033333D01*
X137790357Y-119128571D01*
X137790357Y-119223809D01*
X138266547Y-119319047D01*
X136933214Y-119652380D02*
X136933214Y-118652380D01*
X136933214Y-119604761D02*
X137028452Y-119652380D01*
X137218928Y-119652380D01*
X137314166Y-119604761D01*
X137361785Y-119557142D01*
X137409404Y-119461904D01*
X137409404Y-119176190D01*
X137361785Y-119080952D01*
X137314166Y-119033333D01*
X137218928Y-118985714D01*
X137028452Y-118985714D01*
X136933214Y-119033333D01*
X135266547Y-119652380D02*
X135266547Y-119128571D01*
X135314166Y-119033333D01*
X135409404Y-118985714D01*
X135599880Y-118985714D01*
X135695119Y-119033333D01*
X135266547Y-119604761D02*
X135361785Y-119652380D01*
X135599880Y-119652380D01*
X135695119Y-119604761D01*
X135742738Y-119509523D01*
X135742738Y-119414285D01*
X135695119Y-119319047D01*
X135599880Y-119271428D01*
X135361785Y-119271428D01*
X135266547Y-119223809D01*
X134790357Y-119652380D02*
X134790357Y-118985714D01*
X134790357Y-119176190D02*
X134742738Y-119080952D01*
X134695119Y-119033333D01*
X134599880Y-118985714D01*
X134504642Y-118985714D01*
X133790357Y-119604761D02*
X133885595Y-119652380D01*
X134076071Y-119652380D01*
X134171309Y-119604761D01*
X134218928Y-119509523D01*
X134218928Y-119128571D01*
X134171309Y-119033333D01*
X134076071Y-118985714D01*
X133885595Y-118985714D01*
X133790357Y-119033333D01*
X133742738Y-119128571D01*
X133742738Y-119223809D01*
X134218928Y-119319047D01*
X132885595Y-119652380D02*
X132885595Y-119128571D01*
X132933214Y-119033333D01*
X133028452Y-118985714D01*
X133218928Y-118985714D01*
X133314166Y-119033333D01*
X132885595Y-119604761D02*
X132980833Y-119652380D01*
X133218928Y-119652380D01*
X133314166Y-119604761D01*
X133361785Y-119509523D01*
X133361785Y-119414285D01*
X133314166Y-119319047D01*
X133218928Y-119271428D01*
X132980833Y-119271428D01*
X132885595Y-119223809D01*
X139967142Y-131953571D02*
X139395714Y-131953571D01*
X139681428Y-132239285D02*
X139681428Y-131667857D01*
X139110000Y-131489285D02*
X138645714Y-131489285D01*
X138895714Y-131775000D01*
X138788571Y-131775000D01*
X138717142Y-131810714D01*
X138681428Y-131846428D01*
X138645714Y-131917857D01*
X138645714Y-132096428D01*
X138681428Y-132167857D01*
X138717142Y-132203571D01*
X138788571Y-132239285D01*
X139002857Y-132239285D01*
X139074285Y-132203571D01*
X139110000Y-132167857D01*
X138431428Y-131489285D02*
X138181428Y-132239285D01*
X137931428Y-131489285D01*
X137752857Y-131489285D02*
X137288571Y-131489285D01*
X137538571Y-131775000D01*
X137431428Y-131775000D01*
X137360000Y-131810714D01*
X137324285Y-131846428D01*
X137288571Y-131917857D01*
X137288571Y-132096428D01*
X137324285Y-132167857D01*
X137360000Y-132203571D01*
X137431428Y-132239285D01*
X137645714Y-132239285D01*
X137717142Y-132203571D01*
X137752857Y-132167857D01*
X136288571Y-132239285D02*
X136360000Y-132203571D01*
X136395714Y-132167857D01*
X136431428Y-132096428D01*
X136431428Y-131882142D01*
X136395714Y-131810714D01*
X136360000Y-131775000D01*
X136288571Y-131739285D01*
X136181428Y-131739285D01*
X136110000Y-131775000D01*
X136074285Y-131810714D01*
X136038571Y-131882142D01*
X136038571Y-132096428D01*
X136074285Y-132167857D01*
X136110000Y-132203571D01*
X136181428Y-132239285D01*
X136288571Y-132239285D01*
X135717142Y-132239285D02*
X135717142Y-131739285D01*
X135717142Y-131882142D02*
X135681428Y-131810714D01*
X135645714Y-131775000D01*
X135574285Y-131739285D01*
X135502857Y-131739285D01*
X134681428Y-131953571D02*
X134110000Y-131953571D01*
X134395714Y-132239285D02*
X134395714Y-131667857D01*
X133395714Y-131489285D02*
X133752857Y-131489285D01*
X133788571Y-131846428D01*
X133752857Y-131810714D01*
X133681428Y-131775000D01*
X133502857Y-131775000D01*
X133431428Y-131810714D01*
X133395714Y-131846428D01*
X133360000Y-131917857D01*
X133360000Y-132096428D01*
X133395714Y-132167857D01*
X133431428Y-132203571D01*
X133502857Y-132239285D01*
X133681428Y-132239285D01*
X133752857Y-132203571D01*
X133788571Y-132167857D01*
X133145714Y-131489285D02*
X132895714Y-132239285D01*
X132645714Y-131489285D01*
X148109404Y-131352380D02*
X147776071Y-132352380D01*
X147442738Y-131352380D01*
X146537976Y-132257142D02*
X146585595Y-132304761D01*
X146728452Y-132352380D01*
X146823690Y-132352380D01*
X146966547Y-132304761D01*
X147061785Y-132209523D01*
X147109404Y-132114285D01*
X147157023Y-131923809D01*
X147157023Y-131780952D01*
X147109404Y-131590476D01*
X147061785Y-131495238D01*
X146966547Y-131400000D01*
X146823690Y-131352380D01*
X146728452Y-131352380D01*
X146585595Y-131400000D01*
X146537976Y-131447619D01*
X145537976Y-132257142D02*
X145585595Y-132304761D01*
X145728452Y-132352380D01*
X145823690Y-132352380D01*
X145966547Y-132304761D01*
X146061785Y-132209523D01*
X146109404Y-132114285D01*
X146157023Y-131923809D01*
X146157023Y-131780952D01*
X146109404Y-131590476D01*
X146061785Y-131495238D01*
X145966547Y-131400000D01*
X145823690Y-131352380D01*
X145728452Y-131352380D01*
X145585595Y-131400000D01*
X145537976Y-131447619D01*
X146966547Y-128812380D02*
X146395119Y-128812380D01*
X146680833Y-129812380D02*
X146680833Y-128812380D01*
X146157023Y-128812380D02*
X145490357Y-129812380D01*
X145490357Y-128812380D02*
X146157023Y-129812380D01*
X146490357Y-127272380D02*
X146823690Y-126796190D01*
X147061785Y-127272380D02*
X147061785Y-126272380D01*
X146680833Y-126272380D01*
X146585595Y-126320000D01*
X146537976Y-126367619D01*
X146490357Y-126462857D01*
X146490357Y-126605714D01*
X146537976Y-126700952D01*
X146585595Y-126748571D01*
X146680833Y-126796190D01*
X147061785Y-126796190D01*
X146157023Y-126272380D02*
X145490357Y-127272380D01*
X145490357Y-126272380D02*
X146157023Y-127272380D01*
X147633214Y-123780000D02*
X147728452Y-123732380D01*
X147871309Y-123732380D01*
X148014166Y-123780000D01*
X148109404Y-123875238D01*
X148157023Y-123970476D01*
X148204642Y-124160952D01*
X148204642Y-124303809D01*
X148157023Y-124494285D01*
X148109404Y-124589523D01*
X148014166Y-124684761D01*
X147871309Y-124732380D01*
X147776071Y-124732380D01*
X147633214Y-124684761D01*
X147585595Y-124637142D01*
X147585595Y-124303809D01*
X147776071Y-124303809D01*
X147157023Y-124732380D02*
X147157023Y-123732380D01*
X146585595Y-124732380D01*
X146585595Y-123732380D01*
X146109404Y-124732380D02*
X146109404Y-123732380D01*
X145871309Y-123732380D01*
X145728452Y-123780000D01*
X145633214Y-123875238D01*
X145585595Y-123970476D01*
X145537976Y-124160952D01*
X145537976Y-124303809D01*
X145585595Y-124494285D01*
X145633214Y-124589523D01*
X145728452Y-124684761D01*
X145871309Y-124732380D01*
X146109404Y-124732380D01*
X110624404Y-159911428D02*
X109862500Y-159911428D01*
X110243452Y-160292380D02*
X110243452Y-159530476D01*
X109481547Y-159292380D02*
X108862500Y-159292380D01*
X109195833Y-159673333D01*
X109052976Y-159673333D01*
X108957738Y-159720952D01*
X108910119Y-159768571D01*
X108862500Y-159863809D01*
X108862500Y-160101904D01*
X108910119Y-160197142D01*
X108957738Y-160244761D01*
X109052976Y-160292380D01*
X109338690Y-160292380D01*
X109433928Y-160244761D01*
X109481547Y-160197142D01*
X108576785Y-159292380D02*
X108243452Y-160292380D01*
X107910119Y-159292380D01*
X107672023Y-159292380D02*
X107052976Y-159292380D01*
X107386309Y-159673333D01*
X107243452Y-159673333D01*
X107148214Y-159720952D01*
X107100595Y-159768571D01*
X107052976Y-159863809D01*
X107052976Y-160101904D01*
X107100595Y-160197142D01*
X107148214Y-160244761D01*
X107243452Y-160292380D01*
X107529166Y-160292380D01*
X107624404Y-160244761D01*
X107672023Y-160197142D01*
X105433928Y-160292380D02*
X105433928Y-159768571D01*
X105481547Y-159673333D01*
X105576785Y-159625714D01*
X105767261Y-159625714D01*
X105862500Y-159673333D01*
X105433928Y-160244761D02*
X105529166Y-160292380D01*
X105767261Y-160292380D01*
X105862500Y-160244761D01*
X105910119Y-160149523D01*
X105910119Y-160054285D01*
X105862500Y-159959047D01*
X105767261Y-159911428D01*
X105529166Y-159911428D01*
X105433928Y-159863809D01*
X104957738Y-159625714D02*
X104957738Y-160292380D01*
X104957738Y-159720952D02*
X104910119Y-159673333D01*
X104814880Y-159625714D01*
X104672023Y-159625714D01*
X104576785Y-159673333D01*
X104529166Y-159768571D01*
X104529166Y-160292380D01*
X103624404Y-160292380D02*
X103624404Y-159292380D01*
X103624404Y-160244761D02*
X103719642Y-160292380D01*
X103910119Y-160292380D01*
X104005357Y-160244761D01*
X104052976Y-160197142D01*
X104100595Y-160101904D01*
X104100595Y-159816190D01*
X104052976Y-159720952D01*
X104005357Y-159673333D01*
X103910119Y-159625714D01*
X103719642Y-159625714D01*
X103624404Y-159673333D01*
X102386309Y-159911428D02*
X101624404Y-159911428D01*
X102005357Y-160292380D02*
X102005357Y-159530476D01*
X100672023Y-159292380D02*
X101148214Y-159292380D01*
X101195833Y-159768571D01*
X101148214Y-159720952D01*
X101052976Y-159673333D01*
X100814880Y-159673333D01*
X100719642Y-159720952D01*
X100672023Y-159768571D01*
X100624404Y-159863809D01*
X100624404Y-160101904D01*
X100672023Y-160197142D01*
X100719642Y-160244761D01*
X100814880Y-160292380D01*
X101052976Y-160292380D01*
X101148214Y-160244761D01*
X101195833Y-160197142D01*
X100338690Y-159292380D02*
X100005357Y-160292380D01*
X99672023Y-159292380D01*
X98148214Y-160292380D02*
X98148214Y-159768571D01*
X98195833Y-159673333D01*
X98291071Y-159625714D01*
X98481547Y-159625714D01*
X98576785Y-159673333D01*
X98148214Y-160244761D02*
X98243452Y-160292380D01*
X98481547Y-160292380D01*
X98576785Y-160244761D01*
X98624404Y-160149523D01*
X98624404Y-160054285D01*
X98576785Y-159959047D01*
X98481547Y-159911428D01*
X98243452Y-159911428D01*
X98148214Y-159863809D01*
X97672023Y-160292380D02*
X97672023Y-159625714D01*
X97672023Y-159816190D02*
X97624404Y-159720952D01*
X97576785Y-159673333D01*
X97481547Y-159625714D01*
X97386309Y-159625714D01*
X96672023Y-160244761D02*
X96767261Y-160292380D01*
X96957738Y-160292380D01*
X97052976Y-160244761D01*
X97100595Y-160149523D01*
X97100595Y-159768571D01*
X97052976Y-159673333D01*
X96957738Y-159625714D01*
X96767261Y-159625714D01*
X96672023Y-159673333D01*
X96624404Y-159768571D01*
X96624404Y-159863809D01*
X97100595Y-159959047D01*
X95433928Y-160292380D02*
X95433928Y-159625714D01*
X95433928Y-159816190D02*
X95386309Y-159720952D01*
X95338690Y-159673333D01*
X95243452Y-159625714D01*
X95148214Y-159625714D01*
X94433928Y-160244761D02*
X94529166Y-160292380D01*
X94719642Y-160292380D01*
X94814880Y-160244761D01*
X94862500Y-160149523D01*
X94862500Y-159768571D01*
X94814880Y-159673333D01*
X94719642Y-159625714D01*
X94529166Y-159625714D01*
X94433928Y-159673333D01*
X94386309Y-159768571D01*
X94386309Y-159863809D01*
X94862500Y-159959047D01*
X94100595Y-159625714D02*
X93719642Y-159625714D01*
X93957738Y-160292380D02*
X93957738Y-159435238D01*
X93910119Y-159340000D01*
X93814880Y-159292380D01*
X93719642Y-159292380D01*
X93005357Y-160244761D02*
X93100595Y-160292380D01*
X93291071Y-160292380D01*
X93386309Y-160244761D01*
X93433928Y-160149523D01*
X93433928Y-159768571D01*
X93386309Y-159673333D01*
X93291071Y-159625714D01*
X93100595Y-159625714D01*
X93005357Y-159673333D01*
X92957738Y-159768571D01*
X92957738Y-159863809D01*
X93433928Y-159959047D01*
X92529166Y-160292380D02*
X92529166Y-159625714D01*
X92529166Y-159816190D02*
X92481547Y-159720952D01*
X92433928Y-159673333D01*
X92338690Y-159625714D01*
X92243452Y-159625714D01*
X91529166Y-160244761D02*
X91624404Y-160292380D01*
X91814880Y-160292380D01*
X91910119Y-160244761D01*
X91957738Y-160149523D01*
X91957738Y-159768571D01*
X91910119Y-159673333D01*
X91814880Y-159625714D01*
X91624404Y-159625714D01*
X91529166Y-159673333D01*
X91481547Y-159768571D01*
X91481547Y-159863809D01*
X91957738Y-159959047D01*
X91052976Y-159625714D02*
X91052976Y-160292380D01*
X91052976Y-159720952D02*
X91005357Y-159673333D01*
X90910119Y-159625714D01*
X90767261Y-159625714D01*
X90672023Y-159673333D01*
X90624404Y-159768571D01*
X90624404Y-160292380D01*
X89719642Y-160244761D02*
X89814880Y-160292380D01*
X90005357Y-160292380D01*
X90100595Y-160244761D01*
X90148214Y-160197142D01*
X90195833Y-160101904D01*
X90195833Y-159816190D01*
X90148214Y-159720952D01*
X90100595Y-159673333D01*
X90005357Y-159625714D01*
X89814880Y-159625714D01*
X89719642Y-159673333D01*
X88910119Y-160244761D02*
X89005357Y-160292380D01*
X89195833Y-160292380D01*
X89291071Y-160244761D01*
X89338690Y-160149523D01*
X89338690Y-159768571D01*
X89291071Y-159673333D01*
X89195833Y-159625714D01*
X89005357Y-159625714D01*
X88910119Y-159673333D01*
X88862500Y-159768571D01*
X88862500Y-159863809D01*
X89338690Y-159959047D01*
X88005357Y-160292380D02*
X88005357Y-159292380D01*
X88005357Y-160244761D02*
X88100595Y-160292380D01*
X88291071Y-160292380D01*
X88386309Y-160244761D01*
X88433928Y-160197142D01*
X88481547Y-160101904D01*
X88481547Y-159816190D01*
X88433928Y-159720952D01*
X88386309Y-159673333D01*
X88291071Y-159625714D01*
X88100595Y-159625714D01*
X88005357Y-159673333D01*
X86910119Y-159625714D02*
X86529166Y-159625714D01*
X86767261Y-159292380D02*
X86767261Y-160149523D01*
X86719642Y-160244761D01*
X86624404Y-160292380D01*
X86529166Y-160292380D01*
X86052976Y-160292380D02*
X86148214Y-160244761D01*
X86195833Y-160197142D01*
X86243452Y-160101904D01*
X86243452Y-159816190D01*
X86195833Y-159720952D01*
X86148214Y-159673333D01*
X86052976Y-159625714D01*
X85910119Y-159625714D01*
X85814880Y-159673333D01*
X85767261Y-159720952D01*
X85719642Y-159816190D01*
X85719642Y-160101904D01*
X85767261Y-160197142D01*
X85814880Y-160244761D01*
X85910119Y-160292380D01*
X86052976Y-160292380D01*
X84529166Y-160292380D02*
X84529166Y-159625714D01*
X84529166Y-159720952D02*
X84481547Y-159673333D01*
X84386309Y-159625714D01*
X84243452Y-159625714D01*
X84148214Y-159673333D01*
X84100595Y-159768571D01*
X84100595Y-160292380D01*
X84100595Y-159768571D02*
X84052976Y-159673333D01*
X83957738Y-159625714D01*
X83814880Y-159625714D01*
X83719642Y-159673333D01*
X83672023Y-159768571D01*
X83672023Y-160292380D01*
X82767261Y-160292380D02*
X82767261Y-159768571D01*
X82814880Y-159673333D01*
X82910119Y-159625714D01*
X83100595Y-159625714D01*
X83195833Y-159673333D01*
X82767261Y-160244761D02*
X82862500Y-160292380D01*
X83100595Y-160292380D01*
X83195833Y-160244761D01*
X83243452Y-160149523D01*
X83243452Y-160054285D01*
X83195833Y-159959047D01*
X83100595Y-159911428D01*
X82862500Y-159911428D01*
X82767261Y-159863809D01*
X82291071Y-160292380D02*
X82291071Y-159625714D01*
X82291071Y-159292380D02*
X82338690Y-159340000D01*
X82291071Y-159387619D01*
X82243452Y-159340000D01*
X82291071Y-159292380D01*
X82291071Y-159387619D01*
X81814880Y-159625714D02*
X81814880Y-160292380D01*
X81814880Y-159720952D02*
X81767261Y-159673333D01*
X81672023Y-159625714D01*
X81529166Y-159625714D01*
X81433928Y-159673333D01*
X81386309Y-159768571D01*
X81386309Y-160292380D01*
X80957738Y-160244761D02*
X80862500Y-160292380D01*
X80672023Y-160292380D01*
X80576785Y-160244761D01*
X80529166Y-160149523D01*
X80529166Y-160101904D01*
X80576785Y-160006666D01*
X80672023Y-159959047D01*
X80814880Y-159959047D01*
X80910119Y-159911428D01*
X80957738Y-159816190D01*
X80957738Y-159768571D01*
X80910119Y-159673333D01*
X80814880Y-159625714D01*
X80672023Y-159625714D01*
X80576785Y-159673333D01*
D12*
X110615714Y-153983571D02*
X110258571Y-155483571D01*
X109972857Y-154412142D01*
X109687142Y-155483571D01*
X109330000Y-153983571D01*
X108830000Y-155055000D02*
X108115714Y-155055000D01*
X108972857Y-155483571D02*
X108472857Y-153983571D01*
X107972857Y-155483571D01*
X106615714Y-155483571D02*
X107115714Y-154769285D01*
X107472857Y-155483571D02*
X107472857Y-153983571D01*
X106901428Y-153983571D01*
X106758571Y-154055000D01*
X106687142Y-154126428D01*
X106615714Y-154269285D01*
X106615714Y-154483571D01*
X106687142Y-154626428D01*
X106758571Y-154697857D01*
X106901428Y-154769285D01*
X107472857Y-154769285D01*
X105972857Y-155483571D02*
X105972857Y-153983571D01*
X105115714Y-155483571D01*
X105115714Y-153983571D01*
X104401428Y-155483571D02*
X104401428Y-153983571D01*
X103687142Y-155483571D02*
X103687142Y-153983571D01*
X102830000Y-155483571D01*
X102830000Y-153983571D01*
X101330000Y-154055000D02*
X101472857Y-153983571D01*
X101687142Y-153983571D01*
X101901428Y-154055000D01*
X102044285Y-154197857D01*
X102115714Y-154340714D01*
X102187142Y-154626428D01*
X102187142Y-154840714D01*
X102115714Y-155126428D01*
X102044285Y-155269285D01*
X101901428Y-155412142D01*
X101687142Y-155483571D01*
X101544285Y-155483571D01*
X101330000Y-155412142D01*
X101258571Y-155340714D01*
X101258571Y-154840714D01*
X101544285Y-154840714D01*
X100615714Y-155340714D02*
X100544285Y-155412142D01*
X100615714Y-155483571D01*
X100687142Y-155412142D01*
X100615714Y-155340714D01*
X100615714Y-155483571D01*
X100615714Y-154912142D02*
X100687142Y-154055000D01*
X100615714Y-153983571D01*
X100544285Y-154055000D01*
X100615714Y-154912142D01*
X100615714Y-153983571D01*
X109615714Y-157933571D02*
X110115714Y-157219285D01*
X110472857Y-157933571D02*
X110472857Y-156433571D01*
X109901428Y-156433571D01*
X109758571Y-156505000D01*
X109687142Y-156576428D01*
X109615714Y-156719285D01*
X109615714Y-156933571D01*
X109687142Y-157076428D01*
X109758571Y-157147857D01*
X109901428Y-157219285D01*
X110472857Y-157219285D01*
X108972857Y-157933571D02*
X108972857Y-156433571D01*
X108330000Y-157862142D02*
X108115714Y-157933571D01*
X107758571Y-157933571D01*
X107615714Y-157862142D01*
X107544285Y-157790714D01*
X107472857Y-157647857D01*
X107472857Y-157505000D01*
X107544285Y-157362142D01*
X107615714Y-157290714D01*
X107758571Y-157219285D01*
X108044285Y-157147857D01*
X108187142Y-157076428D01*
X108258571Y-157005000D01*
X108330000Y-156862142D01*
X108330000Y-156719285D01*
X108258571Y-156576428D01*
X108187142Y-156505000D01*
X108044285Y-156433571D01*
X107687142Y-156433571D01*
X107472857Y-156505000D01*
X106830000Y-157933571D02*
X106830000Y-156433571D01*
X105972857Y-157933571D02*
X106615714Y-157076428D01*
X105972857Y-156433571D02*
X106830000Y-157290714D01*
X103901428Y-156433571D02*
X103615714Y-156433571D01*
X103472857Y-156505000D01*
X103330000Y-156647857D01*
X103258571Y-156933571D01*
X103258571Y-157433571D01*
X103330000Y-157719285D01*
X103472857Y-157862142D01*
X103615714Y-157933571D01*
X103901428Y-157933571D01*
X104044285Y-157862142D01*
X104187142Y-157719285D01*
X104258571Y-157433571D01*
X104258571Y-156933571D01*
X104187142Y-156647857D01*
X104044285Y-156505000D01*
X103901428Y-156433571D01*
X102115714Y-157147857D02*
X102615714Y-157147857D01*
X102615714Y-157933571D02*
X102615714Y-156433571D01*
X101901428Y-156433571D01*
X100187142Y-157147857D02*
X99687142Y-157147857D01*
X99472857Y-157933571D02*
X100187142Y-157933571D01*
X100187142Y-156433571D01*
X99472857Y-156433571D01*
X98115714Y-157933571D02*
X98830000Y-157933571D01*
X98830000Y-156433571D01*
X97615714Y-157147857D02*
X97115714Y-157147857D01*
X96901428Y-157933571D02*
X97615714Y-157933571D01*
X97615714Y-156433571D01*
X96901428Y-156433571D01*
X95401428Y-157790714D02*
X95472857Y-157862142D01*
X95687142Y-157933571D01*
X95830000Y-157933571D01*
X96044285Y-157862142D01*
X96187142Y-157719285D01*
X96258571Y-157576428D01*
X96330000Y-157290714D01*
X96330000Y-157076428D01*
X96258571Y-156790714D01*
X96187142Y-156647857D01*
X96044285Y-156505000D01*
X95830000Y-156433571D01*
X95687142Y-156433571D01*
X95472857Y-156505000D01*
X95401428Y-156576428D01*
X94972857Y-156433571D02*
X94115714Y-156433571D01*
X94544285Y-157933571D02*
X94544285Y-156433571D01*
X92758571Y-157933571D02*
X93258571Y-157219285D01*
X93615714Y-157933571D02*
X93615714Y-156433571D01*
X93044285Y-156433571D01*
X92901428Y-156505000D01*
X92830000Y-156576428D01*
X92758571Y-156719285D01*
X92758571Y-156933571D01*
X92830000Y-157076428D01*
X92901428Y-157147857D01*
X93044285Y-157219285D01*
X93615714Y-157219285D01*
X92115714Y-157933571D02*
X92115714Y-156433571D01*
X90544285Y-157790714D02*
X90615714Y-157862142D01*
X90830000Y-157933571D01*
X90972857Y-157933571D01*
X91187142Y-157862142D01*
X91330000Y-157719285D01*
X91401428Y-157576428D01*
X91472857Y-157290714D01*
X91472857Y-157076428D01*
X91401428Y-156790714D01*
X91330000Y-156647857D01*
X91187142Y-156505000D01*
X90972857Y-156433571D01*
X90830000Y-156433571D01*
X90615714Y-156505000D01*
X90544285Y-156576428D01*
X89972857Y-157505000D02*
X89258571Y-157505000D01*
X90115714Y-157933571D02*
X89615714Y-156433571D01*
X89115714Y-157933571D01*
X87901428Y-157933571D02*
X88615714Y-157933571D01*
X88615714Y-156433571D01*
X86330000Y-157862142D02*
X86115714Y-157933571D01*
X85758571Y-157933571D01*
X85615714Y-157862142D01*
X85544285Y-157790714D01*
X85472857Y-157647857D01*
X85472857Y-157505000D01*
X85544285Y-157362142D01*
X85615714Y-157290714D01*
X85758571Y-157219285D01*
X86044285Y-157147857D01*
X86187142Y-157076428D01*
X86258571Y-157005000D01*
X86330000Y-156862142D01*
X86330000Y-156719285D01*
X86258571Y-156576428D01*
X86187142Y-156505000D01*
X86044285Y-156433571D01*
X85687142Y-156433571D01*
X85472857Y-156505000D01*
X84830000Y-157933571D02*
X84830000Y-156433571D01*
X84830000Y-157147857D02*
X83972857Y-157147857D01*
X83972857Y-157933571D02*
X83972857Y-156433571D01*
X82972857Y-156433571D02*
X82687142Y-156433571D01*
X82544285Y-156505000D01*
X82401428Y-156647857D01*
X82330000Y-156933571D01*
X82330000Y-157433571D01*
X82401428Y-157719285D01*
X82544285Y-157862142D01*
X82687142Y-157933571D01*
X82972857Y-157933571D01*
X83115714Y-157862142D01*
X83258571Y-157719285D01*
X83330000Y-157433571D01*
X83330000Y-156933571D01*
X83258571Y-156647857D01*
X83115714Y-156505000D01*
X82972857Y-156433571D01*
X80830000Y-157790714D02*
X80901428Y-157862142D01*
X81115714Y-157933571D01*
X81258571Y-157933571D01*
X81472857Y-157862142D01*
X81615714Y-157719285D01*
X81687142Y-157576428D01*
X81758571Y-157290714D01*
X81758571Y-157076428D01*
X81687142Y-156790714D01*
X81615714Y-156647857D01*
X81472857Y-156505000D01*
X81258571Y-156433571D01*
X81115714Y-156433571D01*
X80901428Y-156505000D01*
X80830000Y-156576428D01*
X80187142Y-157933571D02*
X80187142Y-156433571D01*
X79330000Y-157933571D02*
X79972857Y-157076428D01*
X79330000Y-156433571D02*
X80187142Y-157290714D01*
X78687142Y-157790714D02*
X78615714Y-157862142D01*
X78687142Y-157933571D01*
X78758571Y-157862142D01*
X78687142Y-157790714D01*
X78687142Y-157933571D01*
X78687142Y-157362142D02*
X78758571Y-156505000D01*
X78687142Y-156433571D01*
X78615714Y-156505000D01*
X78687142Y-157362142D01*
X78687142Y-156433571D01*
D13*
X66256000Y-156538000D02*
X63462000Y-153490000D01*
X63208000Y-151712000D02*
X63208000Y-155522000D01*
D14*
X130000000Y-130300000D02*
X130000000Y-128300000D01*
X130000000Y-139000000D02*
X130000000Y-140300000D01*
X130000000Y-151500000D02*
X130000000Y-153000000D01*
X130000000Y-159000000D02*
X130000000Y-168200000D01*
X130000000Y-117000000D02*
X130000000Y-120000000D01*
X130000000Y-117000000D02*
X149500000Y-117000000D01*
D13*
%TO.C,C14*%
X122525000Y-161530000D02*
X123525000Y-161530000D01*
X123525000Y-163230000D02*
X122525000Y-163230000D01*
%TO.C,D5*%
X72600000Y-147530000D02*
X66900000Y-147530000D01*
X72600000Y-151830000D02*
X66900000Y-151830000D01*
X72600000Y-147530000D02*
X72600000Y-151830000D01*
%TO.C,C26*%
X67010000Y-158658000D02*
X66010000Y-158658000D01*
X66010000Y-156958000D02*
X67010000Y-156958000D01*
D15*
%TO.C,SYM3*%
X120739000Y-160094000D02*
X116040000Y-153109000D01*
X111341000Y-160094000D02*
X120739000Y-160094000D01*
X116040000Y-153109000D02*
X111341000Y-160094000D01*
X116537840Y-159499640D02*
X116639440Y-158600480D01*
X115740280Y-156700560D02*
X116537840Y-159499640D01*
X116939160Y-157500660D02*
X115740280Y-156700560D01*
X116139060Y-154500920D02*
X116939160Y-157500660D01*
X116537840Y-159499640D02*
X115938400Y-158801140D01*
X116939160Y-157500660D02*
X115638680Y-154699040D01*
X115338960Y-156400840D02*
X115938400Y-156799620D01*
X116537840Y-159499640D02*
X115338960Y-156400840D01*
D13*
%TO.C,NT1*%
X84600000Y-144990000D02*
X83400000Y-144990000D01*
X83400000Y-146750000D02*
X84600000Y-146750000D01*
%TO.C,FB6*%
X85315000Y-122410000D02*
X85315000Y-123610000D01*
X87075000Y-123610000D02*
X87075000Y-122410000D01*
%TO.C,C11*%
X96705000Y-116060000D02*
X96005000Y-116060000D01*
X96005000Y-117260000D02*
X96705000Y-117260000D01*
%TO.C,U9*%
X72535000Y-160600000D02*
X71605000Y-160600000D01*
X69375000Y-160600000D02*
X70305000Y-160600000D01*
X69375000Y-160600000D02*
X69375000Y-158440000D01*
X72535000Y-160600000D02*
X72535000Y-159140000D01*
%TO.C,U2*%
X95660000Y-115065000D02*
X95660000Y-114135000D01*
X95660000Y-111905000D02*
X95660000Y-112835000D01*
X95660000Y-111905000D02*
X97820000Y-111905000D01*
X95660000Y-115065000D02*
X97120000Y-115065000D01*
%TO.C,U13*%
X102630000Y-147430000D02*
X102330000Y-147070000D01*
X102330000Y-147070000D02*
X98830000Y-147070000D01*
X98830000Y-147070000D02*
X98830000Y-150390000D01*
X98830000Y-150390000D02*
X102630000Y-150390000D01*
X102630000Y-150390000D02*
X102630000Y-147430000D01*
%TO.C,R26*%
X74730000Y-110700000D02*
X73530000Y-110700000D01*
X73530000Y-112460000D02*
X74730000Y-112460000D01*
%TO.C,R33*%
X67110000Y-160865000D02*
X65910000Y-160865000D01*
X65910000Y-162625000D02*
X67110000Y-162625000D01*
%TO.C,R32*%
X67110000Y-158960000D02*
X65910000Y-158960000D01*
X65910000Y-160720000D02*
X67110000Y-160720000D01*
%TO.C,R31*%
X70565000Y-156630000D02*
X70565000Y-155430000D01*
X68805000Y-155430000D02*
X68805000Y-156630000D01*
%TO.C,R30*%
X70710000Y-155430000D02*
X70710000Y-156630000D01*
X72470000Y-156630000D02*
X72470000Y-155430000D01*
%TO.C,R29*%
X74375000Y-156630000D02*
X74375000Y-155430000D01*
X72615000Y-155430000D02*
X72615000Y-156630000D01*
%TO.C,R28*%
X103730000Y-147175000D02*
X103730000Y-148375000D01*
X105490000Y-148375000D02*
X105490000Y-147175000D01*
%TO.C,J7*%
X86770000Y-163590000D02*
X86770000Y-164920000D01*
X88100000Y-163590000D02*
X86770000Y-163590000D01*
X89370000Y-163590000D02*
X89370000Y-166250000D01*
X89370000Y-166250000D02*
X91970000Y-166250000D01*
X89370000Y-163590000D02*
X91970000Y-163590000D01*
X91970000Y-163590000D02*
X91970000Y-166250000D01*
%TO.C,J6*%
X61370000Y-163590000D02*
X61370000Y-164920000D01*
X62700000Y-163590000D02*
X61370000Y-163590000D01*
X63970000Y-163590000D02*
X63970000Y-166250000D01*
X63970000Y-166250000D02*
X66570000Y-166250000D01*
X63970000Y-163590000D02*
X66570000Y-163590000D01*
X66570000Y-163590000D02*
X66570000Y-166250000D01*
%TO.C,J5*%
X145310000Y-140730000D02*
X143980000Y-140730000D01*
X145310000Y-142060000D02*
X145310000Y-140730000D01*
X145310000Y-143330000D02*
X142650000Y-143330000D01*
X142650000Y-143330000D02*
X142650000Y-156090000D01*
X145310000Y-143330000D02*
X145310000Y-156090000D01*
X145310000Y-156090000D02*
X142650000Y-156090000D01*
%TO.C,J4*%
X142650000Y-133230000D02*
X143980000Y-133230000D01*
X142650000Y-131900000D02*
X142650000Y-133230000D01*
X142650000Y-130630000D02*
X145310000Y-130630000D01*
X145310000Y-130630000D02*
X145310000Y-122950000D01*
X142650000Y-130630000D02*
X142650000Y-122950000D01*
X142650000Y-122950000D02*
X145310000Y-122950000D01*
%TO.C,DZ1*%
X72370000Y-108040000D02*
X76670000Y-108040000D01*
X72370000Y-110040000D02*
X72370000Y-108040000D01*
X76670000Y-110040000D02*
X72370000Y-110040000D01*
%TO.C,C10*%
X105745000Y-133590000D02*
X106745000Y-133590000D01*
X106745000Y-135290000D02*
X105745000Y-135290000D01*
%TO.C,C18*%
X76420000Y-129630000D02*
X76420000Y-131630000D01*
X74380000Y-131630000D02*
X74380000Y-129630000D01*
%TO.C,C9*%
X95855000Y-135290000D02*
X94855000Y-135290000D01*
X94855000Y-133590000D02*
X95855000Y-133590000D01*
%TO.C,C14*%
D11*
X123794857Y-161086142D02*
X123842476Y-161133761D01*
X123985333Y-161181380D01*
X124080571Y-161181380D01*
X124223428Y-161133761D01*
X124318666Y-161038523D01*
X124366285Y-160943285D01*
X124413904Y-160752809D01*
X124413904Y-160609952D01*
X124366285Y-160419476D01*
X124318666Y-160324238D01*
X124223428Y-160229000D01*
X124080571Y-160181380D01*
X123985333Y-160181380D01*
X123842476Y-160229000D01*
X123794857Y-160276619D01*
X122842476Y-161181380D02*
X123413904Y-161181380D01*
X123128190Y-161181380D02*
X123128190Y-160181380D01*
X123223428Y-160324238D01*
X123318666Y-160419476D01*
X123413904Y-160467095D01*
X121985333Y-160514714D02*
X121985333Y-161181380D01*
X122223428Y-160133761D02*
X122461523Y-160848047D01*
X121842476Y-160848047D01*
%TO.C,D5*%
X69788095Y-147132380D02*
X69788095Y-146132380D01*
X69550000Y-146132380D01*
X69407142Y-146180000D01*
X69311904Y-146275238D01*
X69264285Y-146370476D01*
X69216666Y-146560952D01*
X69216666Y-146703809D01*
X69264285Y-146894285D01*
X69311904Y-146989523D01*
X69407142Y-147084761D01*
X69550000Y-147132380D01*
X69788095Y-147132380D01*
X68311904Y-146132380D02*
X68788095Y-146132380D01*
X68835714Y-146608571D01*
X68788095Y-146560952D01*
X68692857Y-146513333D01*
X68454761Y-146513333D01*
X68359523Y-146560952D01*
X68311904Y-146608571D01*
X68264285Y-146703809D01*
X68264285Y-146941904D01*
X68311904Y-147037142D01*
X68359523Y-147084761D01*
X68454761Y-147132380D01*
X68692857Y-147132380D01*
X68788095Y-147084761D01*
X68835714Y-147037142D01*
%TO.C,C26*%
X62199857Y-152704142D02*
X62247476Y-152751761D01*
X62390333Y-152799380D01*
X62485571Y-152799380D01*
X62628428Y-152751761D01*
X62723666Y-152656523D01*
X62771285Y-152561285D01*
X62818904Y-152370809D01*
X62818904Y-152227952D01*
X62771285Y-152037476D01*
X62723666Y-151942238D01*
X62628428Y-151847000D01*
X62485571Y-151799380D01*
X62390333Y-151799380D01*
X62247476Y-151847000D01*
X62199857Y-151894619D01*
X61818904Y-151894619D02*
X61771285Y-151847000D01*
X61676047Y-151799380D01*
X61437952Y-151799380D01*
X61342714Y-151847000D01*
X61295095Y-151894619D01*
X61247476Y-151989857D01*
X61247476Y-152085095D01*
X61295095Y-152227952D01*
X61866523Y-152799380D01*
X61247476Y-152799380D01*
X60390333Y-151799380D02*
X60580809Y-151799380D01*
X60676047Y-151847000D01*
X60723666Y-151894619D01*
X60818904Y-152037476D01*
X60866523Y-152227952D01*
X60866523Y-152608904D01*
X60818904Y-152704142D01*
X60771285Y-152751761D01*
X60676047Y-152799380D01*
X60485571Y-152799380D01*
X60390333Y-152751761D01*
X60342714Y-152704142D01*
X60295095Y-152608904D01*
X60295095Y-152370809D01*
X60342714Y-152275571D01*
X60390333Y-152227952D01*
X60485571Y-152180333D01*
X60676047Y-152180333D01*
X60771285Y-152227952D01*
X60818904Y-152275571D01*
X60866523Y-152370809D01*
%TO.C,NT1*%
X85142857Y-144672380D02*
X85142857Y-143672380D01*
X84571428Y-144672380D01*
X84571428Y-143672380D01*
X84238095Y-143672380D02*
X83666666Y-143672380D01*
X83952380Y-144672380D02*
X83952380Y-143672380D01*
X82809523Y-144672380D02*
X83380952Y-144672380D01*
X83095238Y-144672380D02*
X83095238Y-143672380D01*
X83190476Y-143815238D01*
X83285714Y-143910476D01*
X83380952Y-143958095D01*
%TO.C,FB6*%
X89568333Y-122938571D02*
X89901666Y-122938571D01*
X89901666Y-123462380D02*
X89901666Y-122462380D01*
X89425476Y-122462380D01*
X88711190Y-122938571D02*
X88568333Y-122986190D01*
X88520714Y-123033809D01*
X88473095Y-123129047D01*
X88473095Y-123271904D01*
X88520714Y-123367142D01*
X88568333Y-123414761D01*
X88663571Y-123462380D01*
X89044523Y-123462380D01*
X89044523Y-122462380D01*
X88711190Y-122462380D01*
X88615952Y-122510000D01*
X88568333Y-122557619D01*
X88520714Y-122652857D01*
X88520714Y-122748095D01*
X88568333Y-122843333D01*
X88615952Y-122890952D01*
X88711190Y-122938571D01*
X89044523Y-122938571D01*
X87615952Y-122462380D02*
X87806428Y-122462380D01*
X87901666Y-122510000D01*
X87949285Y-122557619D01*
X88044523Y-122700476D01*
X88092142Y-122890952D01*
X88092142Y-123271904D01*
X88044523Y-123367142D01*
X87996904Y-123414761D01*
X87901666Y-123462380D01*
X87711190Y-123462380D01*
X87615952Y-123414761D01*
X87568333Y-123367142D01*
X87520714Y-123271904D01*
X87520714Y-123033809D01*
X87568333Y-122938571D01*
X87615952Y-122890952D01*
X87711190Y-122843333D01*
X87901666Y-122843333D01*
X87996904Y-122890952D01*
X88044523Y-122938571D01*
X88092142Y-123033809D01*
%TO.C,C11*%
X93949857Y-117017142D02*
X93997476Y-117064761D01*
X94140333Y-117112380D01*
X94235571Y-117112380D01*
X94378428Y-117064761D01*
X94473666Y-116969523D01*
X94521285Y-116874285D01*
X94568904Y-116683809D01*
X94568904Y-116540952D01*
X94521285Y-116350476D01*
X94473666Y-116255238D01*
X94378428Y-116160000D01*
X94235571Y-116112380D01*
X94140333Y-116112380D01*
X93997476Y-116160000D01*
X93949857Y-116207619D01*
X92997476Y-117112380D02*
X93568904Y-117112380D01*
X93283190Y-117112380D02*
X93283190Y-116112380D01*
X93378428Y-116255238D01*
X93473666Y-116350476D01*
X93568904Y-116398095D01*
X92045095Y-117112380D02*
X92616523Y-117112380D01*
X92330809Y-117112380D02*
X92330809Y-116112380D01*
X92426047Y-116255238D01*
X92521285Y-116350476D01*
X92616523Y-116398095D01*
%TO.C,U9*%
X73240904Y-161832380D02*
X73240904Y-162641904D01*
X73193285Y-162737142D01*
X73145666Y-162784761D01*
X73050428Y-162832380D01*
X72859952Y-162832380D01*
X72764714Y-162784761D01*
X72717095Y-162737142D01*
X72669476Y-162641904D01*
X72669476Y-161832380D01*
X72145666Y-162832380D02*
X71955190Y-162832380D01*
X71859952Y-162784761D01*
X71812333Y-162737142D01*
X71717095Y-162594285D01*
X71669476Y-162403809D01*
X71669476Y-162022857D01*
X71717095Y-161927619D01*
X71764714Y-161880000D01*
X71859952Y-161832380D01*
X72050428Y-161832380D01*
X72145666Y-161880000D01*
X72193285Y-161927619D01*
X72240904Y-162022857D01*
X72240904Y-162260952D01*
X72193285Y-162356190D01*
X72145666Y-162403809D01*
X72050428Y-162451428D01*
X71859952Y-162451428D01*
X71764714Y-162403809D01*
X71717095Y-162356190D01*
X71669476Y-162260952D01*
%TO.C,U2*%
X97181904Y-110437380D02*
X97181904Y-111246904D01*
X97134285Y-111342142D01*
X97086666Y-111389761D01*
X96991428Y-111437380D01*
X96800952Y-111437380D01*
X96705714Y-111389761D01*
X96658095Y-111342142D01*
X96610476Y-111246904D01*
X96610476Y-110437380D01*
X96181904Y-110532619D02*
X96134285Y-110485000D01*
X96039047Y-110437380D01*
X95800952Y-110437380D01*
X95705714Y-110485000D01*
X95658095Y-110532619D01*
X95610476Y-110627857D01*
X95610476Y-110723095D01*
X95658095Y-110865952D01*
X96229523Y-111437380D01*
X95610476Y-111437380D01*
%TO.C,U13*%
X101968095Y-145522380D02*
X101968095Y-146331904D01*
X101920476Y-146427142D01*
X101872857Y-146474761D01*
X101777619Y-146522380D01*
X101587142Y-146522380D01*
X101491904Y-146474761D01*
X101444285Y-146427142D01*
X101396666Y-146331904D01*
X101396666Y-145522380D01*
X100396666Y-146522380D02*
X100968095Y-146522380D01*
X100682380Y-146522380D02*
X100682380Y-145522380D01*
X100777619Y-145665238D01*
X100872857Y-145760476D01*
X100968095Y-145808095D01*
X100063333Y-145522380D02*
X99444285Y-145522380D01*
X99777619Y-145903333D01*
X99634761Y-145903333D01*
X99539523Y-145950952D01*
X99491904Y-145998571D01*
X99444285Y-146093809D01*
X99444285Y-146331904D01*
X99491904Y-146427142D01*
X99539523Y-146474761D01*
X99634761Y-146522380D01*
X99920476Y-146522380D01*
X100015714Y-146474761D01*
X100063333Y-146427142D01*
%TO.C,R26*%
X78074857Y-112032380D02*
X78408190Y-111556190D01*
X78646285Y-112032380D02*
X78646285Y-111032380D01*
X78265333Y-111032380D01*
X78170095Y-111080000D01*
X78122476Y-111127619D01*
X78074857Y-111222857D01*
X78074857Y-111365714D01*
X78122476Y-111460952D01*
X78170095Y-111508571D01*
X78265333Y-111556190D01*
X78646285Y-111556190D01*
X77693904Y-111127619D02*
X77646285Y-111080000D01*
X77551047Y-111032380D01*
X77312952Y-111032380D01*
X77217714Y-111080000D01*
X77170095Y-111127619D01*
X77122476Y-111222857D01*
X77122476Y-111318095D01*
X77170095Y-111460952D01*
X77741523Y-112032380D01*
X77122476Y-112032380D01*
X76265333Y-111032380D02*
X76455809Y-111032380D01*
X76551047Y-111080000D01*
X76598666Y-111127619D01*
X76693904Y-111270476D01*
X76741523Y-111460952D01*
X76741523Y-111841904D01*
X76693904Y-111937142D01*
X76646285Y-111984761D01*
X76551047Y-112032380D01*
X76360571Y-112032380D01*
X76265333Y-111984761D01*
X76217714Y-111937142D01*
X76170095Y-111841904D01*
X76170095Y-111603809D01*
X76217714Y-111508571D01*
X76265333Y-111460952D01*
X76360571Y-111413333D01*
X76551047Y-111413333D01*
X76646285Y-111460952D01*
X76693904Y-111508571D01*
X76741523Y-111603809D01*
%TO.C,R33*%
X62199857Y-155593380D02*
X62533190Y-155117190D01*
X62771285Y-155593380D02*
X62771285Y-154593380D01*
X62390333Y-154593380D01*
X62295095Y-154641000D01*
X62247476Y-154688619D01*
X62199857Y-154783857D01*
X62199857Y-154926714D01*
X62247476Y-155021952D01*
X62295095Y-155069571D01*
X62390333Y-155117190D01*
X62771285Y-155117190D01*
X61866523Y-154593380D02*
X61247476Y-154593380D01*
X61580809Y-154974333D01*
X61437952Y-154974333D01*
X61342714Y-155021952D01*
X61295095Y-155069571D01*
X61247476Y-155164809D01*
X61247476Y-155402904D01*
X61295095Y-155498142D01*
X61342714Y-155545761D01*
X61437952Y-155593380D01*
X61723666Y-155593380D01*
X61818904Y-155545761D01*
X61866523Y-155498142D01*
X60914142Y-154593380D02*
X60295095Y-154593380D01*
X60628428Y-154974333D01*
X60485571Y-154974333D01*
X60390333Y-155021952D01*
X60342714Y-155069571D01*
X60295095Y-155164809D01*
X60295095Y-155402904D01*
X60342714Y-155498142D01*
X60390333Y-155545761D01*
X60485571Y-155593380D01*
X60771285Y-155593380D01*
X60866523Y-155545761D01*
X60914142Y-155498142D01*
%TO.C,R32*%
X62199857Y-154196380D02*
X62533190Y-153720190D01*
X62771285Y-154196380D02*
X62771285Y-153196380D01*
X62390333Y-153196380D01*
X62295095Y-153244000D01*
X62247476Y-153291619D01*
X62199857Y-153386857D01*
X62199857Y-153529714D01*
X62247476Y-153624952D01*
X62295095Y-153672571D01*
X62390333Y-153720190D01*
X62771285Y-153720190D01*
X61866523Y-153196380D02*
X61247476Y-153196380D01*
X61580809Y-153577333D01*
X61437952Y-153577333D01*
X61342714Y-153624952D01*
X61295095Y-153672571D01*
X61247476Y-153767809D01*
X61247476Y-154005904D01*
X61295095Y-154101142D01*
X61342714Y-154148761D01*
X61437952Y-154196380D01*
X61723666Y-154196380D01*
X61818904Y-154148761D01*
X61866523Y-154101142D01*
X60866523Y-153291619D02*
X60818904Y-153244000D01*
X60723666Y-153196380D01*
X60485571Y-153196380D01*
X60390333Y-153244000D01*
X60342714Y-153291619D01*
X60295095Y-153386857D01*
X60295095Y-153482095D01*
X60342714Y-153624952D01*
X60914142Y-154196380D01*
X60295095Y-154196380D01*
%TO.C,R31*%
X69057857Y-154323380D02*
X69391190Y-153847190D01*
X69629285Y-154323380D02*
X69629285Y-153323380D01*
X69248333Y-153323380D01*
X69153095Y-153371000D01*
X69105476Y-153418619D01*
X69057857Y-153513857D01*
X69057857Y-153656714D01*
X69105476Y-153751952D01*
X69153095Y-153799571D01*
X69248333Y-153847190D01*
X69629285Y-153847190D01*
X68724523Y-153323380D02*
X68105476Y-153323380D01*
X68438809Y-153704333D01*
X68295952Y-153704333D01*
X68200714Y-153751952D01*
X68153095Y-153799571D01*
X68105476Y-153894809D01*
X68105476Y-154132904D01*
X68153095Y-154228142D01*
X68200714Y-154275761D01*
X68295952Y-154323380D01*
X68581666Y-154323380D01*
X68676904Y-154275761D01*
X68724523Y-154228142D01*
X67153095Y-154323380D02*
X67724523Y-154323380D01*
X67438809Y-154323380D02*
X67438809Y-153323380D01*
X67534047Y-153466238D01*
X67629285Y-153561476D01*
X67724523Y-153609095D01*
%TO.C,R30*%
X72232857Y-154323380D02*
X72566190Y-153847190D01*
X72804285Y-154323380D02*
X72804285Y-153323380D01*
X72423333Y-153323380D01*
X72328095Y-153371000D01*
X72280476Y-153418619D01*
X72232857Y-153513857D01*
X72232857Y-153656714D01*
X72280476Y-153751952D01*
X72328095Y-153799571D01*
X72423333Y-153847190D01*
X72804285Y-153847190D01*
X71899523Y-153323380D02*
X71280476Y-153323380D01*
X71613809Y-153704333D01*
X71470952Y-153704333D01*
X71375714Y-153751952D01*
X71328095Y-153799571D01*
X71280476Y-153894809D01*
X71280476Y-154132904D01*
X71328095Y-154228142D01*
X71375714Y-154275761D01*
X71470952Y-154323380D01*
X71756666Y-154323380D01*
X71851904Y-154275761D01*
X71899523Y-154228142D01*
X70661428Y-153323380D02*
X70566190Y-153323380D01*
X70470952Y-153371000D01*
X70423333Y-153418619D01*
X70375714Y-153513857D01*
X70328095Y-153704333D01*
X70328095Y-153942428D01*
X70375714Y-154132904D01*
X70423333Y-154228142D01*
X70470952Y-154275761D01*
X70566190Y-154323380D01*
X70661428Y-154323380D01*
X70756666Y-154275761D01*
X70804285Y-154228142D01*
X70851904Y-154132904D01*
X70899523Y-153942428D01*
X70899523Y-153704333D01*
X70851904Y-153513857D01*
X70804285Y-153418619D01*
X70756666Y-153371000D01*
X70661428Y-153323380D01*
%TO.C,R29*%
X75407857Y-154323380D02*
X75741190Y-153847190D01*
X75979285Y-154323380D02*
X75979285Y-153323380D01*
X75598333Y-153323380D01*
X75503095Y-153371000D01*
X75455476Y-153418619D01*
X75407857Y-153513857D01*
X75407857Y-153656714D01*
X75455476Y-153751952D01*
X75503095Y-153799571D01*
X75598333Y-153847190D01*
X75979285Y-153847190D01*
X75026904Y-153418619D02*
X74979285Y-153371000D01*
X74884047Y-153323380D01*
X74645952Y-153323380D01*
X74550714Y-153371000D01*
X74503095Y-153418619D01*
X74455476Y-153513857D01*
X74455476Y-153609095D01*
X74503095Y-153751952D01*
X75074523Y-154323380D01*
X74455476Y-154323380D01*
X73979285Y-154323380D02*
X73788809Y-154323380D01*
X73693571Y-154275761D01*
X73645952Y-154228142D01*
X73550714Y-154085285D01*
X73503095Y-153894809D01*
X73503095Y-153513857D01*
X73550714Y-153418619D01*
X73598333Y-153371000D01*
X73693571Y-153323380D01*
X73884047Y-153323380D01*
X73979285Y-153371000D01*
X74026904Y-153418619D01*
X74074523Y-153513857D01*
X74074523Y-153751952D01*
X74026904Y-153847190D01*
X73979285Y-153894809D01*
X73884047Y-153942428D01*
X73693571Y-153942428D01*
X73598333Y-153894809D01*
X73550714Y-153847190D01*
X73503095Y-153751952D01*
%TO.C,R28*%
X105252857Y-145941380D02*
X105586190Y-145465190D01*
X105824285Y-145941380D02*
X105824285Y-144941380D01*
X105443333Y-144941380D01*
X105348095Y-144989000D01*
X105300476Y-145036619D01*
X105252857Y-145131857D01*
X105252857Y-145274714D01*
X105300476Y-145369952D01*
X105348095Y-145417571D01*
X105443333Y-145465190D01*
X105824285Y-145465190D01*
X104871904Y-145036619D02*
X104824285Y-144989000D01*
X104729047Y-144941380D01*
X104490952Y-144941380D01*
X104395714Y-144989000D01*
X104348095Y-145036619D01*
X104300476Y-145131857D01*
X104300476Y-145227095D01*
X104348095Y-145369952D01*
X104919523Y-145941380D01*
X104300476Y-145941380D01*
X103729047Y-145369952D02*
X103824285Y-145322333D01*
X103871904Y-145274714D01*
X103919523Y-145179476D01*
X103919523Y-145131857D01*
X103871904Y-145036619D01*
X103824285Y-144989000D01*
X103729047Y-144941380D01*
X103538571Y-144941380D01*
X103443333Y-144989000D01*
X103395714Y-145036619D01*
X103348095Y-145131857D01*
X103348095Y-145179476D01*
X103395714Y-145274714D01*
X103443333Y-145322333D01*
X103538571Y-145369952D01*
X103729047Y-145369952D01*
X103824285Y-145417571D01*
X103871904Y-145465190D01*
X103919523Y-145560428D01*
X103919523Y-145750904D01*
X103871904Y-145846142D01*
X103824285Y-145893761D01*
X103729047Y-145941380D01*
X103538571Y-145941380D01*
X103443333Y-145893761D01*
X103395714Y-145846142D01*
X103348095Y-145750904D01*
X103348095Y-145560428D01*
X103395714Y-145465190D01*
X103443333Y-145417571D01*
X103538571Y-145369952D01*
%TO.C,J7*%
X87163333Y-161705380D02*
X87163333Y-162419666D01*
X87210952Y-162562523D01*
X87306190Y-162657761D01*
X87449047Y-162705380D01*
X87544285Y-162705380D01*
X86782380Y-161705380D02*
X86115714Y-161705380D01*
X86544285Y-162705380D01*
X89338095Y-166912380D02*
X88719047Y-166912380D01*
X89052380Y-167293333D01*
X88909523Y-167293333D01*
X88814285Y-167340952D01*
X88766666Y-167388571D01*
X88719047Y-167483809D01*
X88719047Y-167721904D01*
X88766666Y-167817142D01*
X88814285Y-167864761D01*
X88909523Y-167912380D01*
X89195238Y-167912380D01*
X89290476Y-167864761D01*
X89338095Y-167817142D01*
X88433333Y-166912380D02*
X88100000Y-167912380D01*
X87766666Y-166912380D01*
X87528571Y-166912380D02*
X86909523Y-166912380D01*
X87242857Y-167293333D01*
X87100000Y-167293333D01*
X87004761Y-167340952D01*
X86957142Y-167388571D01*
X86909523Y-167483809D01*
X86909523Y-167721904D01*
X86957142Y-167817142D01*
X87004761Y-167864761D01*
X87100000Y-167912380D01*
X87385714Y-167912380D01*
X87480952Y-167864761D01*
X87528571Y-167817142D01*
%TO.C,J6*%
X61763333Y-161705380D02*
X61763333Y-162419666D01*
X61810952Y-162562523D01*
X61906190Y-162657761D01*
X62049047Y-162705380D01*
X62144285Y-162705380D01*
X60858571Y-161705380D02*
X61049047Y-161705380D01*
X61144285Y-161753000D01*
X61191904Y-161800619D01*
X61287142Y-161943476D01*
X61334761Y-162133952D01*
X61334761Y-162514904D01*
X61287142Y-162610142D01*
X61239523Y-162657761D01*
X61144285Y-162705380D01*
X60953809Y-162705380D01*
X60858571Y-162657761D01*
X60810952Y-162610142D01*
X60763333Y-162514904D01*
X60763333Y-162276809D01*
X60810952Y-162181571D01*
X60858571Y-162133952D01*
X60953809Y-162086333D01*
X61144285Y-162086333D01*
X61239523Y-162133952D01*
X61287142Y-162181571D01*
X61334761Y-162276809D01*
X62890476Y-166912380D02*
X63366666Y-166912380D01*
X63414285Y-167388571D01*
X63366666Y-167340952D01*
X63271428Y-167293333D01*
X63033333Y-167293333D01*
X62938095Y-167340952D01*
X62890476Y-167388571D01*
X62842857Y-167483809D01*
X62842857Y-167721904D01*
X62890476Y-167817142D01*
X62938095Y-167864761D01*
X63033333Y-167912380D01*
X63271428Y-167912380D01*
X63366666Y-167864761D01*
X63414285Y-167817142D01*
X62557142Y-166912380D02*
X62223809Y-167912380D01*
X61890476Y-166912380D01*
%TO.C,J5*%
X144313333Y-138972380D02*
X144313333Y-139686666D01*
X144360952Y-139829523D01*
X144456190Y-139924761D01*
X144599047Y-139972380D01*
X144694285Y-139972380D01*
X143360952Y-138972380D02*
X143837142Y-138972380D01*
X143884761Y-139448571D01*
X143837142Y-139400952D01*
X143741904Y-139353333D01*
X143503809Y-139353333D01*
X143408571Y-139400952D01*
X143360952Y-139448571D01*
X143313333Y-139543809D01*
X143313333Y-139781904D01*
X143360952Y-139877142D01*
X143408571Y-139924761D01*
X143503809Y-139972380D01*
X143741904Y-139972380D01*
X143837142Y-139924761D01*
X143884761Y-139877142D01*
%TO.C,J4*%
X144313333Y-121192380D02*
X144313333Y-121906666D01*
X144360952Y-122049523D01*
X144456190Y-122144761D01*
X144599047Y-122192380D01*
X144694285Y-122192380D01*
X143408571Y-121525714D02*
X143408571Y-122192380D01*
X143646666Y-121144761D02*
X143884761Y-121859047D01*
X143265714Y-121859047D01*
%TO.C,DZ1*%
X80424285Y-109492380D02*
X80424285Y-108492380D01*
X80186190Y-108492380D01*
X80043333Y-108540000D01*
X79948095Y-108635238D01*
X79900476Y-108730476D01*
X79852857Y-108920952D01*
X79852857Y-109063809D01*
X79900476Y-109254285D01*
X79948095Y-109349523D01*
X80043333Y-109444761D01*
X80186190Y-109492380D01*
X80424285Y-109492380D01*
X79519523Y-108492380D02*
X78852857Y-108492380D01*
X79519523Y-109492380D01*
X78852857Y-109492380D01*
X77948095Y-109492380D02*
X78519523Y-109492380D01*
X78233809Y-109492380D02*
X78233809Y-108492380D01*
X78329047Y-108635238D01*
X78424285Y-108730476D01*
X78519523Y-108778095D01*
%TO.C,C10*%
X106903857Y-136575142D02*
X106951476Y-136622761D01*
X107094333Y-136670380D01*
X107189571Y-136670380D01*
X107332428Y-136622761D01*
X107427666Y-136527523D01*
X107475285Y-136432285D01*
X107522904Y-136241809D01*
X107522904Y-136098952D01*
X107475285Y-135908476D01*
X107427666Y-135813238D01*
X107332428Y-135718000D01*
X107189571Y-135670380D01*
X107094333Y-135670380D01*
X106951476Y-135718000D01*
X106903857Y-135765619D01*
X105951476Y-136670380D02*
X106522904Y-136670380D01*
X106237190Y-136670380D02*
X106237190Y-135670380D01*
X106332428Y-135813238D01*
X106427666Y-135908476D01*
X106522904Y-135956095D01*
X105332428Y-135670380D02*
X105237190Y-135670380D01*
X105141952Y-135718000D01*
X105094333Y-135765619D01*
X105046714Y-135860857D01*
X104999095Y-136051333D01*
X104999095Y-136289428D01*
X105046714Y-136479904D01*
X105094333Y-136575142D01*
X105141952Y-136622761D01*
X105237190Y-136670380D01*
X105332428Y-136670380D01*
X105427666Y-136622761D01*
X105475285Y-136575142D01*
X105522904Y-136479904D01*
X105570523Y-136289428D01*
X105570523Y-136051333D01*
X105522904Y-135860857D01*
X105475285Y-135765619D01*
X105427666Y-135718000D01*
X105332428Y-135670380D01*
%TO.C,C18*%
X78709857Y-130987142D02*
X78757476Y-131034761D01*
X78900333Y-131082380D01*
X78995571Y-131082380D01*
X79138428Y-131034761D01*
X79233666Y-130939523D01*
X79281285Y-130844285D01*
X79328904Y-130653809D01*
X79328904Y-130510952D01*
X79281285Y-130320476D01*
X79233666Y-130225238D01*
X79138428Y-130130000D01*
X78995571Y-130082380D01*
X78900333Y-130082380D01*
X78757476Y-130130000D01*
X78709857Y-130177619D01*
X77757476Y-131082380D02*
X78328904Y-131082380D01*
X78043190Y-131082380D02*
X78043190Y-130082380D01*
X78138428Y-130225238D01*
X78233666Y-130320476D01*
X78328904Y-130368095D01*
X77186047Y-130510952D02*
X77281285Y-130463333D01*
X77328904Y-130415714D01*
X77376523Y-130320476D01*
X77376523Y-130272857D01*
X77328904Y-130177619D01*
X77281285Y-130130000D01*
X77186047Y-130082380D01*
X76995571Y-130082380D01*
X76900333Y-130130000D01*
X76852714Y-130177619D01*
X76805095Y-130272857D01*
X76805095Y-130320476D01*
X76852714Y-130415714D01*
X76900333Y-130463333D01*
X76995571Y-130510952D01*
X77186047Y-130510952D01*
X77281285Y-130558571D01*
X77328904Y-130606190D01*
X77376523Y-130701428D01*
X77376523Y-130891904D01*
X77328904Y-130987142D01*
X77281285Y-131034761D01*
X77186047Y-131082380D01*
X76995571Y-131082380D01*
X76900333Y-131034761D01*
X76852714Y-130987142D01*
X76805095Y-130891904D01*
X76805095Y-130701428D01*
X76852714Y-130606190D01*
X76900333Y-130558571D01*
X76995571Y-130510952D01*
%TO.C,C9*%
X95521666Y-136575142D02*
X95569285Y-136622761D01*
X95712142Y-136670380D01*
X95807380Y-136670380D01*
X95950238Y-136622761D01*
X96045476Y-136527523D01*
X96093095Y-136432285D01*
X96140714Y-136241809D01*
X96140714Y-136098952D01*
X96093095Y-135908476D01*
X96045476Y-135813238D01*
X95950238Y-135718000D01*
X95807380Y-135670380D01*
X95712142Y-135670380D01*
X95569285Y-135718000D01*
X95521666Y-135765619D01*
X95045476Y-136670380D02*
X94855000Y-136670380D01*
X94759761Y-136622761D01*
X94712142Y-136575142D01*
X94616904Y-136432285D01*
X94569285Y-136241809D01*
X94569285Y-135860857D01*
X94616904Y-135765619D01*
X94664523Y-135718000D01*
X94759761Y-135670380D01*
X94950238Y-135670380D01*
X95045476Y-135718000D01*
X95093095Y-135765619D01*
X95140714Y-135860857D01*
X95140714Y-136098952D01*
X95093095Y-136194190D01*
X95045476Y-136241809D01*
X94950238Y-136289428D01*
X94759761Y-136289428D01*
X94664523Y-136241809D01*
X94616904Y-136194190D01*
X94569285Y-136098952D01*
%TD*%
M02*
