%TF.GenerationSoftware,KiCad,Pcbnew,(5.1.6)-1*%
%TF.CreationDate,2020-06-29T23:41:49+02:00*%
%TF.ProjectId,EnergyMonitor,456e6572-6779-44d6-9f6e-69746f722e6b,1.0*%
%TF.SameCoordinates,Original*%
%TF.FileFunction,Profile,NP*%
%FSLAX46Y46*%
G04 Gerber Fmt 4.6, Leading zero omitted, Abs format (unit mm)*
G04 Created by KiCad (PCBNEW (5.1.6)-1) date 2020-06-29 23:41:49*
%MOMM*%
%LPD*%
G01*
G04 APERTURE LIST*
%TA.AperFunction,Profile*%
%ADD10C,0.050000*%
%TD*%
G04 APERTURE END LIST*
D10*
X126250000Y-79000000D02*
X126250000Y-78000000D01*
X131250000Y-79000000D02*
X126250000Y-79000000D01*
X131250000Y-78000000D02*
X131250000Y-79000000D01*
X126250000Y-78000000D02*
X131250000Y-78000000D01*
X116000000Y-79000000D02*
X116000000Y-78000000D01*
X121000000Y-79000000D02*
X116000000Y-79000000D01*
X121000000Y-78000000D02*
X121000000Y-79000000D01*
X116000000Y-78000000D02*
X121000000Y-78000000D01*
X129500000Y-158500000D02*
X129500000Y-153500000D01*
X130500000Y-153500000D02*
X130500000Y-158500000D01*
X130500000Y-151000000D02*
X129500000Y-151000000D01*
X129500000Y-153500000D02*
X130500000Y-153500000D01*
X129500000Y-120500000D02*
X129500000Y-128000000D01*
X130500000Y-120500000D02*
X129500000Y-120500000D01*
X130500000Y-128000000D02*
X130500000Y-120500000D01*
X129500000Y-128000000D02*
X130500000Y-128000000D01*
X129500000Y-151000000D02*
X129500000Y-141000000D01*
X130500000Y-158500000D02*
X129500000Y-158500000D01*
X130500000Y-141000000D02*
X130500000Y-151000000D01*
X129500000Y-141000000D02*
X130500000Y-141000000D01*
X129500000Y-138000000D02*
X129500000Y-131000000D01*
X130500000Y-138000000D02*
X129500000Y-138000000D01*
X130500000Y-131000000D02*
X130500000Y-138000000D01*
X129500000Y-131000000D02*
X130500000Y-131000000D01*
X50800000Y-169200000D02*
X50800000Y-69200000D01*
X150800000Y-169200000D02*
X50800000Y-169200000D01*
X150800000Y-69200000D02*
X150800000Y-169200000D01*
X50800000Y-69200000D02*
X150800000Y-69200000D01*
M02*
