%TF.GenerationSoftware,KiCad,Pcbnew,(5.1.6)-1*%
%TF.CreationDate,2020-06-29T23:41:49+02:00*%
%TF.ProjectId,EnergyMonitor,456e6572-6779-44d6-9f6e-69746f722e6b,1.0*%
%TF.SameCoordinates,Original*%
%TF.FileFunction,Paste,Bot*%
%TF.FilePolarity,Positive*%
%FSLAX46Y46*%
G04 Gerber Fmt 4.6, Leading zero omitted, Abs format (unit mm)*
G04 Created by KiCad (PCBNEW (5.1.6)-1) date 2020-06-29 23:41:49*
%MOMM*%
%LPD*%
G01*
G04 APERTURE LIST*
%ADD10R,1.000000X1.250000*%
%ADD11R,2.500000X2.300000*%
%ADD12R,0.700000X1.300000*%
%ADD13R,1.300000X0.700000*%
%ADD14R,0.800000X0.750000*%
%ADD15R,0.800000X0.900000*%
%ADD16R,0.900000X0.800000*%
%ADD17R,1.000000X0.600000*%
%ADD18R,1.300000X1.700000*%
%ADD19R,1.600000X1.000000*%
G04 APERTURE END LIST*
D10*
%TO.C,C14*%
X124025000Y-162380000D03*
X122025000Y-162380000D03*
%TD*%
D11*
%TO.C,D5*%
X71200000Y-149680000D03*
X66900000Y-149680000D03*
%TD*%
D10*
%TO.C,C26*%
X67510000Y-157808000D03*
X65510000Y-157808000D03*
%TD*%
D12*
%TO.C,NT1*%
X84950000Y-145870000D03*
X83050000Y-145870000D03*
%TD*%
D13*
%TO.C,FB6*%
X86195000Y-122060000D03*
X86195000Y-123960000D03*
%TD*%
D14*
%TO.C,C11*%
X95605000Y-116660000D03*
X97105000Y-116660000D03*
%TD*%
D15*
%TO.C,U9*%
X70005000Y-158840000D03*
X71905000Y-158840000D03*
X70955000Y-160840000D03*
%TD*%
D16*
%TO.C,U2*%
X97420000Y-112535000D03*
X97420000Y-114435000D03*
X95420000Y-113485000D03*
%TD*%
D17*
%TO.C,U13*%
X101930000Y-149680000D03*
X99530000Y-149680000D03*
X101930000Y-148730000D03*
X101930000Y-147780000D03*
X99530000Y-147780000D03*
%TD*%
D12*
%TO.C,R26*%
X75080000Y-111580000D03*
X73180000Y-111580000D03*
%TD*%
%TO.C,R33*%
X67460000Y-161745000D03*
X65560000Y-161745000D03*
%TD*%
%TO.C,R32*%
X67460000Y-159840000D03*
X65560000Y-159840000D03*
%TD*%
D13*
%TO.C,R31*%
X69685000Y-156980000D03*
X69685000Y-155080000D03*
%TD*%
%TO.C,R30*%
X71590000Y-155080000D03*
X71590000Y-156980000D03*
%TD*%
%TO.C,R29*%
X73495000Y-156980000D03*
X73495000Y-155080000D03*
%TD*%
%TO.C,R28*%
X104610000Y-146825000D03*
X104610000Y-148725000D03*
%TD*%
D18*
%TO.C,DZ1*%
X73170000Y-109040000D03*
X76670000Y-109040000D03*
%TD*%
D10*
%TO.C,C10*%
X105245000Y-134440000D03*
X107245000Y-134440000D03*
%TD*%
D19*
%TO.C,C18*%
X75400000Y-129130000D03*
X75400000Y-132130000D03*
%TD*%
D10*
%TO.C,C9*%
X96355000Y-134440000D03*
X94355000Y-134440000D03*
%TD*%
M02*
