M48
; DRILL file {KiCad (5.1.6)-1} date 06/29/20 23:41:40
; FORMAT={-:-/ absolute / metric / decimal}
; #@! TF.CreationDate,2020-06-29T23:41:40+02:00
; #@! TF.GenerationSoftware,Kicad,Pcbnew,(5.1.6)-1
; #@! TF.FileFunction,Plated,1,2,PTH
FMAT,2
METRIC
T1C0.400
T2C0.600
T3C0.762
T4C0.800
T5C0.813
T6C1.000
T7C1.100
T8C1.200
T9C1.500
T10C1.520
T11C3.200
%
G90
G05
T1
X58.89Y-138.25
X58.89Y-156.03
X63.97Y-138.25
X63.97Y-156.03
X67.78Y-156.03
X68.796Y-159.84
X71.59Y-110.945
X80.734Y-146.505
X88.1Y-150.95
X88.1Y-152.22
X88.1Y-153.49
X88.1Y-154.76
X88.735Y-124.28
X89.84Y-133.625
X91.11Y-133.625
X91.275Y-113.485
X93.815Y-117.93
X94.45Y-108.405
X95.085Y-123.645
X95.72Y-121.74
X95.72Y-126.185
X96.355Y-127.455
X96.99Y-105.865
X96.99Y-108.405
X96.99Y-121.105
X98.26Y-101.735
X98.895Y-112.215
X98.895Y-115.39
X99.53Y-129.36
X99.53Y-130.63
X100.8Y-103.96
X102.07Y-128.09
X102.07Y-129.36
X102.07Y-130.63
X102.07Y-144.6
X102.705Y-121.105
X103.34Y-126.185
X103.913Y-138.208
X104.61Y-119.2
X104.61Y-122.375
X104.61Y-126.185
X104.61Y-150.315
X105.88Y-81.1
X105.88Y-83.64
X105.88Y-86.18
X105.88Y-88.72
X105.88Y-91.26
X105.88Y-93.8
X105.88Y-117.93
X107.15Y-105.865
X107.15Y-108.405
X107.15Y-129.995
X108.42Y-81.1
X108.42Y-83.64
X108.42Y-86.18
X108.42Y-93.8
X108.42Y-117.93
X110.96Y-81.1
X110.96Y-83.64
X110.96Y-86.18
X110.96Y-122.375
X110.96Y-124.915
X110.96Y-128.725
X110.96Y-129.995
X110.96Y-131.265
X110.96Y-133.805
X110.96Y-135.71
X112.23Y-135.71
X112.865Y-105.865
X113.5Y-86.18
X113.5Y-135.71
X113.5Y-142.06
X113.5Y-147.14
X113.5Y-152.22
X113.5Y-157.3
X116.04Y-86.18
X118.58Y-86.18
X118.58Y-88.72
X118.58Y-93.8
X118.58Y-124.28
X121.12Y-161.11
X122.39Y-110.31
X123.025Y-134.44
X124.93Y-110.31
X124.93Y-163.65
X126.835Y-105.865
X128.74Y-86.18
X128.74Y-88.72
X128.74Y-93.8
X131.28Y-86.18
X133.82Y-86.18
X136.36Y-81.1
X136.36Y-83.64
X136.36Y-86.18
X138.9Y-81.1
X138.9Y-83.64
X138.9Y-86.18
X138.9Y-93.8
X138.9Y-136.98
X141.44Y-81.1
X141.44Y-83.64
X141.44Y-86.18
X141.44Y-88.72
X141.44Y-91.26
X141.44Y-93.8
X143.98Y-134.44
T2
X70.32Y-164.92
X71.59Y-164.92
X72.86Y-164.92
X63.335Y-158.57
X63.335Y-159.84
X63.335Y-161.11
T3
X77.94Y-76.02
X87.94Y-76.02
X67.78Y-126.82
X67.78Y-134.44
X70.32Y-134.44
X72.86Y-126.82
X72.86Y-134.44
X75.4Y-126.82
X75.4Y-134.44
X77.94Y-86.18
X87.94Y-86.18
T4
X72.86Y-115.39
X72.86Y-123.01
X75.4Y-115.39
X75.4Y-123.01
X57.62Y-91.26
X59.42Y-83.76
X98.26Y-134.44
X103.14Y-134.44
X126.2Y-154.76
X126.2Y-157.3
X133.82Y-154.76
X133.82Y-157.3
X126.2Y-142.06
X126.2Y-144.6
X126.2Y-147.14
X126.2Y-149.68
X133.82Y-142.06
X133.82Y-144.6
X133.82Y-147.14
X133.82Y-149.68
T5
X100.8Y-114.12
X103.34Y-114.12
X108.42Y-114.12
X110.96Y-114.12
T6
X143.98Y-142.06
X143.98Y-144.6
X143.98Y-147.14
X143.98Y-149.68
X143.98Y-152.22
X143.98Y-154.76
X88.1Y-164.92
X90.64Y-164.92
X55.16Y-103.96
X60.16Y-103.96
X62.7Y-164.92
X65.24Y-164.92
X55.16Y-116.66
X60.16Y-116.66
X88.1Y-81.1
X90.64Y-81.1
X143.98Y-124.28
X143.98Y-126.82
X143.98Y-129.36
X143.98Y-131.9
T7
X75.4Y-93.8
X75.4Y-103.96
X75.4Y-149.68
X75.4Y-159.84
X62.7Y-124.28
X62.7Y-134.44
T8
X67.78Y-81.1
X67.78Y-96.34
X67.78Y-101.42
X67.78Y-116.66
T9
X55.08Y-126.82
X143.98Y-103.96
X138.9Y-164.92
X105.88Y-164.92
T10
X128.74Y-76.02
X128.74Y-81.1
X118.58Y-76.02
X118.58Y-81.1
T11
X133.82Y-91.26
X113.5Y-91.26
T0
M30
